<svg id="레이어_1" data-name="레이어 1" xmlns="http://www.w3.org/2000/svg" viewBox="0 0 95.71 15.98"><path d="M7.43,17.94c2.13,0,3.78.92,3.78,2.88a3,3,0,0,1-1.39,2.4,3,3,0,0,1,2,2.75c0,2.31-1.68,3.6-4.22,3.6H2.28V17.94ZM3.11,26.26c1.79,0,3.74,1,3.74,3,0-2,1.94-2.94,3.74-3-1.8-.05-3.74-1.11-3.74-3C6.85,25.16,4.9,26.22,3.11,26.26Zm.27-5.54c1.74,0,3.39.73,3.47,2.39.08-1.66,1.73-2.35,3.46-2.39-1.73,0-3.38-.84-3.46-2.41C6.77,19.88,5.12,20.68,3.38,20.72Z" transform="translate(-2.28 -16.94)"/><path d="M21.59,24.46V26c0,2.15-1.69,3.76-4.48,3.76S12.63,28.16,12.63,26V24.46c0-2,1.69-3.75,4.48-3.75S21.59,22.45,21.59,24.46Zm-7.92.77c2.37.07,3.38,1.46,3.44,3.9,0-2.46,1.06-3.85,3.44-3.92-2.38-.05-3.4-1.33-3.44-3.89C17.05,23.88,16,25.17,13.67,25.23Z" transform="translate(-2.28 -16.94)"/><path d="M31.39,24.46V26c0,2.15-1.7,3.76-4.49,3.76S22.42,28.16,22.42,26V24.46c0-2,1.69-3.75,4.48-3.75S31.39,22.45,31.39,24.46Zm-7.92.77c2.36.07,3.38,1.46,3.43,3.9,0-2.46,1.06-3.85,3.44-3.92-2.38-.05-3.4-1.33-3.44-3.89C26.85,23.88,25.83,25.17,23.47,25.23Z" transform="translate(-2.28 -16.94)"/><path d="M32.05,26.63h2.47c-.13.65.82,1.06,1.6,1.09s1.46-.31,1.46-.69-.37-.45-.8-.61l-2.42-.79a2.49,2.49,0,0,1-2-2.33c0-1.73,1.76-2.59,3.83-2.59S40,21.9,39.75,23.43H37.41c0-.55-.62-.76-1.22-.76s-1.13.18-1.13.44.22.4.69.59l2.73,1A2.24,2.24,0,0,1,40.28,27c-.11,1.65-1.81,2.88-4.23,2.79C33.38,29.7,31.83,28.35,32.05,26.63Z" transform="translate(-2.28 -16.94)"/><path d="M43.63,26.25a1.54,1.54,0,0,0,1.72,1.49c1,0,1.58-.23,1.58-.67v-.26h2.69v.4c0,1.46-1.81,2.56-4.27,2.56s-4.41-1.52-4.41-3.66V24.46c0-2.28,1.89-3.75,4.41-3.75s4.41,1.47,4.41,3.75v1.73H43.63Zm-1.07-2.78c1.34,0,2.93.71,2.93,2.24,0-1.53,1.47-2.21,2.8-2.25-1.29,0-2.74-.58-2.8-2.11C45.4,22.88,43.86,23.44,42.56,23.47Z" transform="translate(-2.28 -16.94)"/><path d="M54.47,29.48c-2.42.46-3.8-.58-3.8-3.11V20.9h2.7v5.19c0,1.1.52,1.53,1.51,1.27l1.16-.3V20.9h2.69v8.67H56v-.4Z" transform="translate(-2.28 -16.94)"/><path d="M62.53,22.41a2.25,2.25,0,0,1,2.16-1.51h.53v2.33h-.35a2.55,2.55,0,0,0-2.34,2.37v4h-2.7V20.9h2.7Z" transform="translate(-2.28 -16.94)"/><path d="M68.33,26.25a1.54,1.54,0,0,0,1.72,1.49c1,0,1.58-.23,1.58-.67v-.26h2.7v.4c0,1.46-1.82,2.56-4.28,2.56s-4.41-1.52-4.41-3.66V24.46c0-2.28,1.9-3.75,4.41-3.75s4.42,1.47,4.42,3.75v1.73H68.33Zm-1.07-2.78c1.35,0,2.93.71,2.93,2.24,0-1.53,1.47-2.21,2.8-2.25-1.29,0-2.73-.58-2.8-2.11C70.11,22.88,68.57,23.44,67.26,23.47Z" transform="translate(-2.28 -16.94)"/><path d="M84.26,24.46V26c0,2.15-1.69,3.76-4.48,3.76S75.29,28.16,75.29,26V24.46c0-2,1.7-3.75,4.49-3.75S84.26,22.45,84.26,24.46Zm-7.92.77c2.37.07,3.38,1.46,3.44,3.9,0-2.46,1.06-3.85,3.43-3.92-2.37-.05-3.39-1.33-3.43-3.89C79.72,23.88,78.71,25.17,76.34,25.23Z" transform="translate(-2.28 -16.94)"/><path d="M94.19,24.46v5.25c0,1.71-2,3.2-4.48,3.2S85.37,31.58,85.37,30v-.35h2.69v.21c0,.57.63.95,1.65.95s1.79-.54,1.79-1.23V29a4.69,4.69,0,0,1-1.86.3c-2.52,0-4.55-1.61-4.55-3.62V24.46c0-2.15,1.9-3.75,4.55-3.75S94.19,22.31,94.19,24.46Zm-8,.56c2.44.07,3.44,1.39,3.44,4,0-2.59,1-3.92,3.44-4-2.38-.06-3.4-1.2-3.44-3.76C89.59,23.81,88.57,25,86.2,25Z" transform="translate(-2.28 -16.94)"/><path d="M95,18.48A1.49,1.49,0,1,1,96.51,20,1.47,1.47,0,0,1,95,18.48Zm.14,2.42h2.69v8.67H95.16Z" transform="translate(-2.28 -16.94)"/></svg>